REM DIRINDEX 1\2,1\3,1\4,1\6,1\5\7,1\5\8
REM DIRNAME folder01,folder02,folder03,folder04,folder05,folder06,folder07,folder08
TITLE ""
FILE "DB4500_5th_1A_19.mp3" MP3
  TRACK 01 AUDIO
    TITLE "2:cjc114_0545"
    INDEX 01 00:00:00
  TRACK 02 AUDIO
    TITLE "0:"
    INDEX 01 00:01:17
  TRACK 03 AUDIO
    TITLE "3:cjc114_0546"
    INDEX 01 00:01:44
  TRACK 04 AUDIO
    TITLE "0:"
    INDEX 01 00:02:61
  TRACK 05 AUDIO
    TITLE "4:cjc114_0547"
    INDEX 01 00:03:14
  TRACK 06 AUDIO
    TITLE "0:"
    INDEX 01 00:06:51
  TRACK 07 AUDIO
    TITLE "2:cjc114_0548"
    INDEX 01 00:07:31
  TRACK 08 AUDIO
    TITLE "0:"
    INDEX 01 00:08:48
  TRACK 09 AUDIO
    TITLE "3:cjc114_0549"
    INDEX 01 00:08:73
  TRACK 10 AUDIO
    TITLE "0:"
    INDEX 01 00:10:33
  TRACK 11 AUDIO
    TITLE "4:cjc114_0550"
    INDEX 01 00:10:61
  TRACK 12 AUDIO
    TITLE "0:"
    INDEX 01 00:14:54
  TRACK 13 AUDIO
    TITLE "2:cjc114_0551"
    INDEX 01 00:15:34
  TRACK 14 AUDIO
    TITLE "0:"
    INDEX 01 00:16:40
  TRACK 15 AUDIO
    TITLE "3:cjc114_0552"
    INDEX 01 00:16:65
  TRACK 16 AUDIO
    TITLE "0:"
    INDEX 01 00:17:61
  TRACK 17 AUDIO
    TITLE "4:cjc114_0553"
    INDEX 01 00:18:15
  TRACK 18 AUDIO
    TITLE "0:"
    INDEX 01 00:21:17
  TRACK 19 AUDIO
    TITLE "2:cjc114_0554"
    INDEX 01 00:21:72
  TRACK 20 AUDIO
    TITLE "0:"
    INDEX 01 00:23:03
  TRACK 21 AUDIO
    TITLE "3:cjc114_0555"
    INDEX 01 00:23:32
  TRACK 22 AUDIO
    TITLE "0:"
    INDEX 01 00:24:39
  TRACK 23 AUDIO
    TITLE "4:cjc114_0556"
    INDEX 01 00:24:67
  TRACK 24 AUDIO
    TITLE "0:"
    INDEX 01 00:27:59
  TRACK 25 AUDIO
    TITLE "2:cjc114_0557"
    INDEX 01 00:28:39
  TRACK 26 AUDIO
    TITLE "0:"
    INDEX 01 00:29:48
  TRACK 27 AUDIO
    TITLE "3:cjc114_0558"
    INDEX 01 00:30:01
  TRACK 28 AUDIO
    TITLE "0:"
    INDEX 01 00:30:63
  TRACK 29 AUDIO
    TITLE "4:cjc114_0559"
    INDEX 01 00:31:16
  TRACK 30 AUDIO
    TITLE "0:"
    INDEX 01 00:34:49
  TRACK 31 AUDIO
    TITLE "2:cjc114_0560"
    INDEX 01 00:35:29
  TRACK 32 AUDIO
    TITLE "0:"
    INDEX 01 00:36:38
  TRACK 33 AUDIO
    TITLE "3:cjc114_0561"
    INDEX 01 00:36:64
  TRACK 34 AUDIO
    TITLE "0:"
    INDEX 01 00:38:04
  TRACK 35 AUDIO
    TITLE "4:cjc114_0562"
    INDEX 01 00:38:31
  TRACK 36 AUDIO
    TITLE "0:"
    INDEX 01 00:41:42
  TRACK 37 AUDIO
    TITLE "2:cjc114_0563"
    INDEX 01 00:42:21
  TRACK 38 AUDIO
    TITLE "0:"
    INDEX 01 00:43:33
  TRACK 39 AUDIO
    TITLE "3:cjc114_0564"
    INDEX 01 00:43:64
  TRACK 40 AUDIO
    TITLE "0:"
    INDEX 01 00:46:15
  TRACK 41 AUDIO
    TITLE "4:cjc114_0565"
    INDEX 01 00:46:43
  TRACK 42 AUDIO
    TITLE "0:"
    INDEX 01 00:50:05
  TRACK 43 AUDIO
    TITLE "2:cjc114_0566"
    INDEX 01 00:50:58
  TRACK 44 AUDIO
    TITLE "0:"
    INDEX 01 00:51:65
  TRACK 45 AUDIO
    TITLE "3:cjc114_0567"
    INDEX 01 00:52:18
  TRACK 46 AUDIO
    TITLE "0:"
    INDEX 01 00:55:03
  TRACK 47 AUDIO
    TITLE "4:cjc114_0568"
    INDEX 01 00:55:30
  TRACK 48 AUDIO
    TITLE "0:"
    INDEX 01 00:59:14
  TRACK 49 AUDIO
    TITLE "2:cjc114_0569"
    INDEX 01 00:59:69
  TRACK 50 AUDIO
    TITLE "0:"
    INDEX 01 01:00:66
  TRACK 51 AUDIO
    TITLE "3:cjc114_0570"
    INDEX 01 01:01:21
  TRACK 52 AUDIO
    TITLE "0:"
    INDEX 01 01:03:20
  TRACK 53 AUDIO
    TITLE "4:cjc114_0571"
    INDEX 01 01:03:49
  TRACK 54 AUDIO
    TITLE "0:"
    INDEX 01 01:06:38
  TRACK 55 AUDIO
    TITLE "4:cjc114_0572"
    INDEX 01 01:06:73
  TRACK 56 AUDIO
    TITLE "0:"
    INDEX 01 01:10:20
  TRACK 57 AUDIO
    TITLE "2:cjc114_0573"
    INDEX 01 01:10:73
  TRACK 58 AUDIO
    TITLE "0:"
    INDEX 01 01:11:62
  TRACK 59 AUDIO
    TITLE "3:cjc114_0574"
    INDEX 01 01:12:19
  TRACK 60 AUDIO
    TITLE "0:"
    INDEX 01 01:14:41
  TRACK 61 AUDIO
    TITLE "4:cjc114_0575"
    INDEX 01 01:14:68
  TRACK 62 AUDIO
    TITLE "0:"
    INDEX 01 01:18:25
  TRACK 63 AUDIO
    TITLE "2:cjc114_0576"
    INDEX 01 01:19:01
  TRACK 64 AUDIO
    TITLE "0:"
    INDEX 01 01:20:18
  TRACK 65 AUDIO
    TITLE "3:cjc114_0577"
    INDEX 01 01:20:48
  TRACK 66 AUDIO
    TITLE "0:"
    INDEX 01 01:22:74
  TRACK 67 AUDIO
    TITLE "4:cjc114_0578"
    INDEX 01 01:23:26
  TRACK 68 AUDIO
    TITLE "0:"
    INDEX 01 01:28:18
  TRACK 69 AUDIO
    TITLE "2:cjc114_0579"
    INDEX 01 01:28:71
  TRACK 70 AUDIO
    TITLE "0:"
    INDEX 01 01:30:05
  TRACK 71 AUDIO
    TITLE "3:cjc114_0580"
    INDEX 01 01:30:34
  TRACK 72 AUDIO
    TITLE "0:"
    INDEX 01 01:33:13
  TRACK 73 AUDIO
    TITLE "4:cjc114_0581"
    INDEX 01 01:33:36
  TRACK 74 AUDIO
    TITLE "0:"
    INDEX 01 01:35:69
